<svg height="511pt" viewBox="-72 0 511 511.998" width="511pt" xmlns="http://www.w3.org/2000/svg"><path d="m172.46875 504.496094c-3.675781 0-7.371094-1.21875-10.445312-3.71875-7.078126-5.773438-8.136719-16.191406-2.367188-23.273438 14.015625-17.191406 7.511719-46.75 3.207031-66.308594-2.542969-11.554687-4.222656-19.1875-2.753906-26.160156 1.886719-8.9375 10.660156-14.65625 19.597656-12.773437 8.617188 1.816406 14.242188 10.03125 12.949219 18.625.121094 2.300781 1.496094 8.566406 2.519531 13.199219 5.328125 24.210937 14.246094 64.734374-9.875 94.324218-3.273437 4.007813-8.035156 6.085938-12.832031 6.085938zm20.015625-112.652344c0 .003906 0 .007812-.003906.015625.003906-.007813.003906-.011719.003906-.015625zm0 0" fill="#efd176"/><path d="m272.765625 504.5c-1.121094 0-2.257813-.113281-3.398437-.351562-8.945313-1.871094-14.679688-10.632813-12.808594-19.578126 5.785156-27.691406-1.445313-81.46875-3.8125-92.710937-1.886719-8.941406 3.832031-17.714844 12.773437-19.597656 8.933594-1.882813 17.710938 3.832031 19.597657 12.773437 2.03125 9.640625 11.367187 70.199219 3.824218 106.304688-1.628906 7.800781-8.507812 13.160156-16.175781 13.160156zm0 0" fill="#efd176"/><path d="m107.222656 330.535156c-9.074218 0-17.410156-2.8125-25.226562-5.445312-13.4375-4.535156-28.667969-9.667969-55.230469-6.066406-9.0625 1.246093-17.386719-5.113282-18.613281-14.164063-1.230469-9.054687 5.113281-17.390625 14.164062-18.617187 34.246094-4.648438 55.054688 2.371093 70.253906 7.496093 14.410157 4.859375 16.527344 5.257813 23.734376-.527343 7.128906-5.71875 17.535156-4.578126 23.253906 2.542968 5.71875 7.125 4.582031 17.535156-2.542969 23.253906-10.824219 8.691407-20.683594 11.527344-29.792969 11.527344zm0 0" fill="#efd176"/><path d="m177.136719 74.148438c23.273437 23.273437 27.261719 59.503906 27.660156 78.101562.144531 6.757812-5.378906 12.28125-12.136719 12.136719-18.597656-.398438-54.828125-4.386719-78.101562-27.660157-23.273438-23.273437-27.261719-59.503906-27.660156-78.101562-.144532-6.757812 5.378906-12.28125 12.136718-12.136719 18.597656.398438 54.828125 4.382813 78.101563 27.660157zm0 0" fill="#8ee2cf"/><path d="m159.804688 126.894531c-1.917969 0-3.839844-.734375-5.304688-2.199219l-27.910156-27.910156c-2.929688-2.929687-2.929688-7.679687-.003906-10.605468 2.929687-2.933594 7.679687-2.929688 10.605468-.003907l27.914063 27.914063c2.929687 2.929687 2.929687 7.675781 0 10.605468-1.460938 1.464844-3.382813 2.199219-5.300781 2.199219zm0 0" fill="#6fce91"/><path d="m268.089844 74.148438c-23.273438 23.273437-27.261719 59.503906-27.660156 78.101562-.144532 6.757812 5.378906 12.28125 12.136718 12.136719 18.597656-.398438 54.828125-4.386719 78.101563-27.660157 23.273437-23.273437 27.261719-59.503906 27.660156-78.101562.144531-6.757812-5.378906-12.28125-12.136719-12.136719-18.597656.398438-54.828125 4.382813-78.101562 27.660157zm0 0" fill="#8ee2cf"/><path d="m285.421875 126.894531c-1.917969 0-3.835937-.734375-5.300781-2.199219-2.929688-2.929687-2.929688-7.675781 0-10.605468l27.910156-27.910156c2.929688-2.929688 7.679688-2.929688 10.605469 0 2.929687 2.929687 2.929687 7.675781 0 10.605468l-27.910157 27.910156c-1.464843 1.464844-3.382812 2.199219-5.304687 2.199219zm0 0" fill="#6fce91"/><path d="m266.863281 85.945312c0 32.914063-22.800781 61.351563-35.667969 74.78125-4.675781 4.882813-12.488281 4.882813-17.164062 0-12.867188-13.429687-35.667969-41.867187-35.667969-74.78125 0-32.914062 22.800781-61.355468 35.667969-74.785156 4.675781-4.878906 12.488281-4.878906 17.164062 0 12.867188 13.429688 35.667969 41.871094 35.667969 74.785156zm0 0" fill="#8ee2cf"/><path d="m222.613281 113.183594c-4.144531 0-7.5-3.359375-7.5-7.5v-39.476563c0-4.144531 3.355469-7.5 7.5-7.5 4.140625 0 7.5 3.355469 7.5 7.5v39.476563c0 4.140625-3.355469 7.5-7.5 7.5zm0 0" fill="#6fce91"/><path d="m222.613281 133.828125c68.277344 0 117.082031 53.773437 123.625 135.203125 6.804688 84.703125-25.058593 147.886719-123.625 147.886719-98.566406 0-130.429687-63.183594-123.625-147.886719 6.542969-81.429688 55.347657-135.203125 123.625-135.203125zm0 0" fill="#f7ef87"/><g fill="#efd176"><path d="m181.800781 140.925781c-46.359375 17.113281-77.664062 64.046875-82.8125 128.105469-6.785156 84.46875 24.886719 147.527344 122.8125 147.878906-118.859375-72.722656-86.984375-203.925781-40-275.984375zm0 0"/><path d="m245.765625 238.238281c-1.917969 0-3.839844-.730469-5.304687-2.195312l-6.699219-6.699219-6.699219 6.699219c-2.929688 2.929687-7.679688 2.929687-10.605469 0-2.929687-2.929688-2.929687-7.675781 0-10.605469l12.003907-12.003906c2.929687-2.929688 7.675781-2.929688 10.605468 0l12.003906 12.003906c2.929688 2.929688 2.929688 7.675781 0 10.605469-1.464843 1.464843-3.386718 2.195312-5.304687 2.195312zm0 0"/><path d="m314.390625 238.238281c-1.917969 0-3.835937-.730469-5.300781-2.195312l-6.703125-6.699219-6.699219 6.699219c-2.929688 2.929687-7.675781 2.929687-10.605469 0-2.929687-2.929688-2.929687-7.675781 0-10.605469l12.003907-12.003906c1.40625-1.40625 3.3125-2.195313 5.304687-2.195313 1.988281 0 3.894531.789063 5.300781 2.195313l12.007813 12.003906c2.925781 2.929688 2.925781 7.675781 0 10.605469-1.46875 1.464843-3.386719 2.195312-5.308594 2.195312zm0 0"/><path d="m153.132812 238.238281c-1.917968 0-3.839843-.730469-5.304687-2.195312-2.929687-2.929688-2.929687-7.675781 0-10.605469l12.003906-12.003906c1.410157-1.40625 3.316407-2.195313 5.304688-2.195313s3.898437.789063 5.304687 2.195313l12.003906 12.003906c2.929688 2.929688 2.929688 7.679688-.003906 10.605469-2.925781 2.929687-7.675781 2.929687-10.605468 0l-6.699219-6.699219-6.699219 6.699219c-1.464844 1.464843-3.386719 2.195312-5.304688 2.195312zm0 0"/><path d="m279.957031 378.929688c-1.917969 0-3.835937-.734376-5.304687-2.199219l-6.699219-6.699219-6.699219 6.699219c-2.929687 2.929687-7.675781 2.929687-10.605468 0-2.929688-2.925781-2.929688-7.675781 0-10.605469l12-12.003906c1.40625-1.40625 3.316406-2.195313 5.304687-2.195313s3.898437.789063 5.304687 2.195313l12.003907 12.003906c2.929687 2.929688 2.929687 7.679688 0 10.605469-1.464844 1.464843-3.382813 2.199219-5.304688 2.199219zm0 0"/><path d="m187.324219 378.929688c-1.917969 0-3.839844-.734376-5.304688-2.199219-2.929687-2.929688-2.929687-7.675781 0-10.605469l12.003907-12.003906c1.40625-1.40625 3.316406-2.195313 5.304687-2.195313s3.898437.789063 5.304687 2.195313l12.003907 12.003906c2.925781 2.929688 2.925781 7.679688-.003907 10.605469-2.925781 2.929687-7.675781 2.929687-10.605468 0l-6.699219-6.699219-6.699219 6.699219c-1.464844 1.464843-3.386718 2.199219-5.304687 2.199219zm0 0"/></g><path d="m183.4375 315.570312c0-12.910156-13.140625-23.378906-29.351562-23.378906-16.214844 0-29.355469 10.46875-29.355469 23.378906 0 12.910157 13.140625 23.375 29.355469 23.375 16.210937 0 29.351562-10.464843 29.351562-23.375zm0 0" fill="#eda1ab"/><path d="m342.554688 315.570312c0-12.910156-13.144532-23.378906-29.355469-23.378906-16.214844 0-29.355469 10.46875-29.355469 23.378906 0 12.910157 13.140625 23.375 29.355469 23.375 16.210937 0 29.355469-10.464843 29.355469-23.375zm0 0" fill="#eda1ab"/><path d="m233.640625 290.734375c-11.644531 0-22.015625-7.828125-28.539063 1.824219-6.617187 9.789062 8.203126 24.96875 28.539063 24.96875s35.15625-15.179688 28.539063-24.96875c-6.523438-9.652344-16.890626-1.824219-28.539063-1.824219zm0 0" fill="#4e5660"/><path d="m294.597656 375.726562c-1.535156 0-3.015625-.054687-4.4375-.148437-21.65625-1.445313-41.773437-13.625-53.816406-32.578125-4.898438-7.710938-2.621094-17.933594 5.089844-22.832031 7.710937-4.902344 17.9375-2.621094 22.835937 5.089843 6.316407 9.941407 17.082031 16.574219 28.101563 17.3125 13.035156.867188 26.277344-6.222656 38.304687-20.515624 5.882813-6.988282 16.320313-7.886719 23.308594-2.003907 6.988281 5.878907 7.886719 16.3125 2.003906 23.304688-22.066406 26.21875-44.863281 32.371093-61.390625 32.371093zm0 0" fill="#efd176"/><path d="m25.730469 255.707031c1.0625.519531 2.183593.765625 3.289062.765625 2.773438 0 5.441407-1.546875 6.742188-4.207031 4.695312-9.589844 12.535156-22.027344 18.664062-26.660156 3.304688-2.5 3.957031-7.203125 1.460938-10.507813-2.5-3.300781-7.203125-3.957031-10.507813-1.457031-11.207031 8.472656-21.199218 28.171875-23.089844 32.03125-1.820312 3.722656-.28125 8.214844 3.441407 10.035156zm24.796875 14.253907c1.078125.535156 2.222656.792968 3.351562.792968 2.75 0 5.398438-1.519531 6.714844-4.148437 2.746094-5.496094 8.4375-13.441407 13.523438-18.886719 2.828124-3.027344 2.667968-7.773438-.359376-10.601562-3.027343-2.828126-7.773437-2.664063-10.601562.359374-6.140625 6.574219-12.5625 15.582032-15.980469 22.421876-1.851562 3.703124-.351562 8.207031 3.351563 10.0625zm138.550781 9.933593c-3.125-2.722656-7.863281-2.398437-10.582031.726563-1.847656 2.117187-4.507813 3.332031-7.304688 3.332031s-5.457031-1.214844-7.300781-3.332031c-2.722656-3.121094-7.460937-3.445313-10.582031-.726563-3.125 2.722657-3.449219 7.460938-.726563 10.582031 4.695313 5.386719 11.476563 8.476563 18.609375 8.476563 7.132813 0 13.914063-3.089844 18.609375-8.476563 2.722657-3.121093 2.398438-7.859374-.722656-10.582031zm178.207031 50.75c-.550781-6.398437-3.5625-12.199219-8.472656-16.335937-1.609375-1.351563-3.34375-2.453125-5.15625-3.316406 1.246094-13.179688 1.269531-27.460938.058594-42.5625-3.351563-41.675782-17.386719-77.152344-40.597656-102.589844-1.640626-1.796875-3.320313-3.527344-5.03125-5.203125 10.949218-4.792969 20.296874-11.019531 27.882812-18.601563.9375-.9375 1.871094-1.917968 2.773438-2.917968 2.773437-3.074219 2.53125-7.816407-.539063-10.59375-3.074219-2.777344-7.820313-2.535157-10.59375.539062-.734375.8125-1.484375 1.605469-2.246094 2.359375-7.757812 7.757813-17.90625 13.859375-30.195312 18.179687-10.285157-7.613281-21.566407-13.414062-33.664063-17.316406 8.527344-15.671875 12.859375-31.222656 12.859375-46.339844 0-2.402343-.117187-4.777343-.328125-7.125 9.472656-9.1875 31.039063-23.953124 72.316406-24.835937 1.597657-.011719 2.695313.792969 3.191407 1.289063.496093.492187 1.320312 1.566406 1.285156 3.191406-.226563 10.539062-1.628906 26.402344-7.042969 42.117187-1.351562 3.917969.730469 8.1875 4.648438 9.535157.808594.277343 1.632812.410156 2.441406.410156 3.109375 0 6.019531-1.953125 7.089844-5.058594 6.046875-17.546875 7.609375-35.074219 7.859375-46.683594.113281-5.332031-1.902344-10.347656-5.675781-14.121094-3.773438-3.773437-8.824219-5.804687-14.121094-5.675781-18.296875.390625-50.730469 4.035157-75.230469 22.851563-7.140625-24.558594-23.4375-44.648438-34.1875-55.867188-3.6875-3.851562-8.660156-5.972656-13.996094-5.972656-5.335937 0-10.308593 2.121094-13.996093 5.972656-10.753907 11.21875-27.050782 31.308594-34.1875 55.867188-24.503907-18.8125-56.933594-22.457032-75.230469-22.851563-5.285157-.089843-10.347657 1.902344-14.121094 5.675781-3.773437 3.773438-5.789063 8.789063-5.675781 14.121094.4375 20.375 4.894531 58.285156 29.851562 83.246094 7.589844 7.585938 16.9375 13.8125 27.886719 18.601562-1.710937 1.679688-3.390625 3.410157-5.027344 5.207032-23.210937 25.4375-37.25 60.910156-40.597656 102.589844-.460937 5.738281-.738281 11.320312-.851563 16.765624-15.503906-5.113281-36.507812-10.84375-69.355468-6.386718-6.359375.863281-12.007813 4.152344-15.894532 9.265625-3.890624 5.109375-5.558593 11.429687-4.691406 17.789062.863282 6.378907 4.160156 12.035157 9.28125 15.925781 5.113282 3.882813 11.425782 5.539063 17.773438 4.664063 24.816406-3.363281 38.546875 1.265625 51.824218 5.742187 4.949219 1.667969 10.414063 3.5 16.273438 4.660157 5.117188 20.332031 13.949219 37.363281 26.46875 50.925781 9.117188 9.882812 20.109375 17.785156 32.902344 23.683594.097656.445312.191406.882812.292968 1.339844 3.03125 13.769531 7.183594 32.632812 4.007813 47.355468-.871094 4.046875 1.703125 8.039063 5.753906 8.910156.53125.113282 1.0625.171876 1.585938.171876 3.457031 0 6.566406-2.40625 7.324219-5.921876 3.207031-14.882812.605468-31.675781-2.273438-45.609374 6.097656 1.816406 12.511719 3.269531 19.253906 4.347656 4.066406 22.929687 5.46875 50.542968-11.707031 71.609375-1.722656 2.113281-4.28125 3.328125-7.015625 3.328125-1.464844 0-3.640625-.355469-5.703125-2.035156-2.101563-1.710938-2.878906-3.816407-3.164063-5.28125-.785156-4.066407-4.71875-6.730469-8.785156-5.941407-4.066406.789063-6.726562 4.722657-5.941406 8.789063 1.066406 5.511718 4.054688 10.507812 8.414062 14.0625 4.277344 3.484375 9.667969 5.40625 15.179688 5.40625 7.265625 0 14.0625-3.226563 18.644531-8.851563 10.167969-12.46875 16.007813-27.976562 17.355469-46.09375.890625-11.910156-.265625-23.609375-1.769531-33.203125 5.144531.375 10.449219.566406 15.917969.566406 9.40625 0 18.320312-.566406 26.757812-1.675781 1.589844 16.347657 3.359375 43.46875-.15625 60.296875-1.3125 6.285156-.101562 12.707032 3.414062 18.082032 3.515626 5.371093 8.914063 9.054687 15.195313 10.367187 1.625.339844 3.285156.511719 4.941406.511719 11.3125 0 21.199219-8.042969 23.515625-19.125 5.394532-25.828125 2.566406-62.101563-.097656-84.457032 16.257812-8.742187 29.253906-21.058593 38.898438-36.894531 8.730468-5.289062 17.765624-12.789062 26.640624-23.335937 4.132813-4.914063 6.109376-11.144532 5.558594-17.539063zm-282.890625-12.664062c-13.515625-4.558594-30.335937-10.230469-58.648437-6.386719-2.378906.324219-4.75-.292969-6.667969-1.75-1.929687-1.464844-3.167969-3.59375-3.492187-5.996094-.328126-2.394531.300781-4.769531 1.761718-6.691406 1.464844-1.921875 3.585938-3.15625 5.980469-3.480469 32.503906-4.414062 52.355469 2.285157 66.851563 7.171875.226562.078125.4375.148438.660156.222656.308594 6.785157.933594 13.304688 1.847656 19.566407-2.800781-.8125-5.570312-1.738281-8.292969-2.65625zm135.050781-301.632813c1.125-1.171875 2.46875-1.347656 3.167969-1.347656s2.042969.175781 3.167969 1.347656c29.21875 30.5 33.582031 56.695313 33.582031 69.597656 0 13.628907-4.359375 27.917969-12.9375 42.535157-7.683593-1.421875-15.632812-2.152344-23.8125-2.152344-8.179687 0-16.128906.730469-23.8125 2.152344-8.578125-14.617188-12.9375-28.910157-12.9375-42.535157 0-12.902343 4.363281-39.097656 33.582031-69.597656zm-99.585937 115.074219c-21.25-21.25-25.074219-54.832031-25.460937-72.957031-.035157-1.625.789062-2.699219 1.285156-3.191406.492187-.496094 1.570312-1.320313 3.191406-1.285157 17.945312.382813 51.03125 4.144531 72.3125 24.84375-.207031 2.34375-.328125 4.714844-.328125 7.113281 0 15.117188 4.332031 30.667969 12.863281 46.339844-12.097656 3.902344-23.378906 9.703125-33.664062 17.316406-12.289063-4.320312-22.441406-10.421874-30.199219-18.179687zm161.738281 358.382813c-.871094 4.171874-4.585937 7.195312-8.832031 7.195312-.621094 0-1.246094-.066406-1.867187-.195312-2.363282-.492188-4.394532-1.878907-5.714844-3.898438-1.324219-2.019531-1.777344-4.4375-1.285156-6.800781 3.929687-18.792969 2.183593-47.15625.292968-65.972657 6.183594-1.398437 12.058594-3.148437 17.632813-5.230468 2.140625 19.757812 4.464843 52.457031-.226563 74.902344zm-58.984375-80.390626c-39.742187 0-69.769531-10.699218-89.25-31.804687-11.511719-12.476563-19.464843-28.550781-23.820312-48.074219-.050781-.554687-.171875-1.09375-.339844-1.609375-2.078125-9.847656-3.265625-20.542969-3.539063-32.085937.007813-.308594.007813-.617188-.019531-.921875-.160156-8.027344.109375-16.457031.820313-25.289063 3.078125-38.328125 15.777344-70.726562 36.726562-93.683594 3.980469-4.359374 8.21875-8.324218 12.683594-11.886718.011719-.007813.019531-.019532.035156-.027344 18.703125-14.90625 41.457032-22.703125 66.703125-22.703125 8.800781 0 17.296875.945313 25.429688 2.8125.042969.011719.089843.019531.136719.03125 15.132812 3.492187 28.984374 10.175781 41.125 19.851563.019531.011718.035156.027343.050781.039062 4.464843 3.558594 8.699219 7.523438 12.679687 11.882812 20.945313 22.957032 33.644532 55.351563 36.726563 93.683594 1.128906 14.054688 1.121093 27.300782 0 39.484375-5.21875 1.003907-10.140625 3.730469-13.824219 8.105469-7.269531 8.640625-18.738281 18.757812-32.066406 17.863281-8.679688-.582031-17.210938-5.890625-22.273438-13.851562-1.886718-2.972657-4.363281-5.417969-7.230468-7.277344 2.261718-2.132813 4.140624-4.503906 5.503906-7.066406 3.371094-6.347657 3.195312-13.101563-.476563-18.53125-7.257812-10.742188-18.210937-8.234375-25.457031-6.574219-3.105469.710938-6.316406 1.445312-9.296875 1.445312-2.976563 0-6.191406-.734374-9.296875-1.445312-7.25-1.660156-18.199219-4.164062-25.457031 6.574219-3.671875 5.433593-3.84375 12.1875-.476563 18.53125 4.984375 9.382812 16.773438 16.273437 29.789063 17.808593-.570313 1.34375-1.035157 2.742188-1.359375 4.195313-1.398438 6.269531-.269532 12.707031 3.175781 18.125 13.316406 20.960937 35.613281 34.433594 59.644531 36.042969 1.636719.105468 3.296875.164062 4.9375.164062 3.84375 0 8.117188-.3125 12.699219-1.109375-19.53125 18.132813-47.886719 27.300781-84.683594 27.300781zm33.011719-109.5625c-2.621094 4.933594-11.214844 10.175782-21.984375 10.175782-10.765625 0-19.363281-5.242188-21.980469-10.175782-1.070312-2.015624-.542968-2.800781-.34375-3.09375.65625-.972656 1.144532-1.523437 2.765625-1.523437 1.320313 0 3.390625.367187 6.914063 1.171875 3.738281.855469 7.972656 1.824219 12.644531 1.824219 4.675781 0 8.910156-.96875 12.648437-1.824219 7.847657-1.796875 8.488282-1.410156 9.679688.351562.199219.296876.726562 1.078126-.34375 3.09375zm94.625 38.671876c-20.65625 24.550781-41.664062 29.703124-55.652344 29.703124-1.308594 0-2.632812-.046874-3.9375-.132812-19.28125-1.289062-37.21875-12.175781-47.984375-29.117188-1.296875-2.039062-1.71875-4.460937-1.195312-6.816406.527343-2.355468 1.9375-4.371094 3.976562-5.664062 1.46875-.933594 3.136719-1.414063 4.832031-1.414063.660157 0 1.324219.074219 1.984376.222657 2.359374.523437 4.371093 1.933593 5.664062 3.972656 7.574219 11.921875 20.578125 19.882812 33.933594 20.773437 15.503906 1.027344 30.914062-6.976562 44.542968-23.167969 2.046876-2.433593 5.109376-3.507812 8.050782-3.140624.039062.003906.074218.015624.113281.019531.011719.003906.023437.003906.035156.003906 1.621094.230469 3.199219.890625 4.539063 2.019531 1.851562 1.558594 2.980468 3.738282 3.1875 6.144532.207031 2.40625-.535156 4.746093-2.089844 6.59375zm-54.160156-39.574219c7.132812 0 13.914062-3.085938 18.609375-8.472657 2.722656-3.121093 2.398437-7.859374-.726563-10.582031-3.121094-2.722656-7.859375-2.398437-10.582031.726563-1.84375 2.117187-4.503906 3.328125-7.300781 3.328125s-5.457032-1.210938-7.304688-3.328125c-2.71875-3.121094-7.457031-3.449219-10.578125-.726563-3.125 2.722657-3.449219 7.460938-.726562 10.582031 4.695312 5.386719 11.476562 8.472657 18.609375 8.472657zm0 0"/></svg>