<?xml version="1.0" encoding="iso-8859-1"?>
<!-- Generator: Adobe Illustrator 19.0.0, SVG Export Plug-In . SVG Version: 6.00 Build 0)  -->
<svg version="1.1" id="Capa_1" xmlns="http://www.w3.org/2000/svg" xmlns:xlink="http://www.w3.org/1999/xlink" x="0px" y="0px"
	 viewBox="0 0 512 512" style="enable-background:new 0 0 512 512;" xml:space="preserve">
<path style="fill:#E3E3E3;" d="M456,184.989l0.91-1.4L309.045,87.993L160.73,183.88l1.36,2.11v273c117.232,0,290.109,0,293.91,0
	v-269V184.989z"/>
<path style="fill:#57555C;" d="M502,478.989v23H138v-23c0-11.05,8.95-20,20-20h26c5.719,0,266.281,0,272,0h26
	C493.05,458.989,502,467.939,502,478.989z"/>
<polygon style="fill:#FFFFFF;" points="256,53.699 256,53.709 256,189.989 311.09,189.989 311.09,89.316 "/>
<polygon style="fill:#57555C;" points="456.91,183.589 311.09,89.316 311.09,189.989 456,189.989 456,184.989 "/>
<path style="fill:#FFFFFF;" d="M296,232.989c0,5.273,0,114.737,0,120c5.273,0,114.737,0,120,0c0-5.273,0-114.737,0-120
	C410.727,232.989,301.263,232.989,296,232.989z"/>
<g>
	<path style="fill:#4DBBEB;" d="M329,232.989c0,5.273,0,114.737,0,120c3.823,0,83.185,0,87,0c0-5.273,0-114.737,0-120
		C412.177,232.989,332.815,232.989,329,232.989z"/>
	<path style="fill:#4DBBEB;" d="M131,235.989c0,5.949,0,170.724,0,180c3.735,0,81.272,0,85,0c0-5.949,0-170.723,0-180
		C212.265,235.989,134.728,235.989,131,235.989z"/>
</g>
<path style="fill:#FD6244;" d="M492.74,159.109l-226-146c-6.56-4.17-14.92-4.17-21.48,0L132,86.277v47.588l124-80.166l200.91,129.89
	l14.35,9.28c9.437,5.951,21.716,3.103,27.62-6.14C504.8,177.419,502.06,165.049,492.74,159.109z"/>
<path d="M296,385.989c-5.52,0-10,4.48-10,10s4.48,10,10,10s10-4.48,10-10S301.52,385.989,296,385.989z"/>
<path d="M482,448.989h-16V201.371c13.954,8.746,32.355,4.755,41.318-9.276c8.871-13.95,4.742-32.531-9.152-41.385L272.104,4.67
	c-9.783-6.219-22.426-6.22-32.271,0.04L13.885,150.677c-13.945,8.887-18.074,27.468-9.188,41.441
	c8.855,13.843,27.31,17.988,41.303,9.25v247.621H30c-16.542,0-30,13.458-30,30v23c0,5.522,4.477,10,10,10h492
	c5.523,0,10-4.478,10-10v-23C512,462.447,498.542,448.989,482,448.989z M266,448.989v-249h180v249H266z M432.92,179.989H266V72.073
	L432.92,179.989z M21.559,181.364c-2.959-4.655-1.58-10.855,3.127-13.855l225.938-145.96c3.265-2.076,7.485-2.075,10.689-0.04
	l226.052,146.033c4.655,2.967,6.035,9.167,3.087,13.804c-2.95,4.62-9.05,6.067-13.818,3.091L261.429,45.302
	c-0.091-0.059-0.189-0.099-0.282-0.154c-0.236-0.142-0.477-0.274-0.724-0.397c-0.146-0.072-0.29-0.146-0.439-0.211
	c-0.341-0.149-0.691-0.281-1.051-0.391c-0.164-0.05-0.329-0.085-0.495-0.127c-0.23-0.058-0.461-0.109-0.697-0.151
	c-0.195-0.034-0.388-0.066-0.584-0.089c-0.223-0.026-0.45-0.037-0.678-0.048c-0.32-0.015-0.638-0.015-0.958,0
	c-0.229,0.011-0.457,0.022-0.681,0.048c-0.195,0.023-0.387,0.055-0.581,0.089c-0.238,0.042-0.471,0.094-0.703,0.152
	c-0.164,0.041-0.328,0.076-0.49,0.126c-0.361,0.11-0.712,0.243-1.054,0.392c-0.148,0.064-0.291,0.138-0.436,0.21
	c-0.249,0.123-0.49,0.256-0.727,0.398c-0.092,0.055-0.19,0.095-0.281,0.154l-201.36,130.18c0,0-0.001,0-0.001,0.001l-13.82,8.938
	C30.729,187.373,24.519,185.99,21.559,181.364z M66,188.446L246,72.073V448.99H66V188.446z M492,491.989H20v-13
	c0-5.514,4.486-10,10-10h452c5.514,0,10,4.486,10,10V491.989z"/>
<path d="M216,225.989H96c-5.523,0-10,4.478-10,10v180c0,5.522,4.477,10,10,10h120c5.523,0,10-4.478,10-10v-180
	C226,230.467,221.523,225.989,216,225.989z M106,305.989h40v40h-40V305.989z M166,305.989h40v40h-40V305.989z M206,285.989h-40v-40
	h40V285.989z M146,245.989v40h-40v-40L146,245.989L146,245.989z M106,365.989h40v40h-40V365.989z M166,405.989v-40h40v40H166z"/>
<path d="M416,222.989H296c-5.523,0-10,4.478-10,10v120c0,5.522,4.477,10,10,10h120c5.523,0,10-4.478,10-10v-120
	C426,227.467,421.523,222.989,416,222.989z M406,282.989h-40v-40h40V282.989z M346,242.989v40h-40v-40L346,242.989L346,242.989z
	 M306,302.989h40v40h-40V302.989z M366,342.989v-40h40v40H366z"/>
<path d="M416,385.989h-80c-5.523,0-10,4.478-10,10s4.477,10,10,10h80c5.523,0,10-4.478,10-10S421.523,385.989,416,385.989z"/>
<g>
</g>
<g>
</g>
<g>
</g>
<g>
</g>
<g>
</g>
<g>
</g>
<g>
</g>
<g>
</g>
<g>
</g>
<g>
</g>
<g>
</g>
<g>
</g>
<g>
</g>
<g>
</g>
<g>
</g>
</svg>
